<?xml version="1.0" encoding="UTF-8"?>
<svg id="Layer_2" xmlns="http://www.w3.org/2000/svg" viewBox="0 0 1109.48 379.27">
  <g id="Layer_1-2" data-name="Layer_1">
    <g>
      <path d="M778.91,295.39c-.69-11.09-2.19-14.38-12.91-16.66-1.61-.34-3.26-.58-4.91-.7-9.55-.66-19.12-1.08-28.65-1.97-5.52-.52-10.98-1.71-16.45-2.69-7.75-1.38-15.66-2.27-23.16-4.49-3.45-1.02-7.39-4.12-8.84-7.32-2.48-5.45-4.58-11.76-4.37-17.62.54-15.23,2.61-30.41,3.66-45.63.41-5.96.08-12.04-.69-17.96-.21-1.65-3.13-4.06-4.94-4.18-6.16-.41-12.38.27-18.57.09-3.72-.1-7.42-1.04-11.13-1.56-3.35-.47-6.7-1.18-10.06-1.2-2.41-.01-3.56,1.34-3.17,4.35.39,2.97-.53,6.11-.87,9.18-.57-.08-1.13-.17-1.69-.25-1.28-4.18-2.6-8.34-3.82-12.54-.99-3.41-8.35-9.53-11.61-8.79-4.43,1.01-8.73,2.75-12.98,4.45-6.23,2.48-12.37,5.18-18.53,7.83-7.84,3.38-15.68,6.77-23.48,10.25-.82.36-1.29,1.44-1.99,2.12-2.2,2.12-4.43,4.21-6.65,6.31l-1.41-.97c-.08-1.76-.04-3.53-.26-5.27-1.64-12.98-2.7-26.07-5.24-38.87-1.47-7.44-5.03-14.54-8.2-21.55-2.78-6.15-5.96-12.19-9.62-17.85-3.48-5.39-7.7-10.32-11.79-15.29-5.8-7.03-11.38-14.31-17.8-20.73-6.16-6.16-12.95-11.81-20.06-16.86-8.15-5.78-16.61-11.35-25.55-15.76-15.95-7.87-32.12-15.44-48.67-21.9-12.36-4.83-25.38-8.14-38.3-11.34-12.54-3.11-25.23-5.97-38.02-7.56-13.18-1.63-26.55-1.84-39.85-2.23-30.99-.9-61.83.48-92.13,7.78-14.46,3.48-28.96,6.96-43.19,11.23-8.34,2.51-16.38,6.25-24.27,10.03-10.83,5.2-21.48,10.79-32.03,16.54-5.11,2.79-9.82,6.3-14.69,9.52-6.06,4-12.42,7.65-18.08,12.17-5.89,4.7-11.33,10.04-16.55,15.51-4.15,4.34-7.73,9.23-11.43,13.97-5.16,6.62-11.01,12.88-15.09,20.12-4.91,8.73-9.02,18.1-12.12,27.63-3.51,10.78-6.53,21.93-7.93,33.14-1.99,15.9-.2,31.74,4.1,47.35,2.91,10.56,6.76,20.53,12.03,30.14,3.37,6.14,6.3,12.36,10.98,17.73,4.25,4.88,7.45,10.66,11.59,15.65,3.84,4.64,8.18,8.9,12.54,13.07,4.61,4.4,9.25,8.85,14.35,12.65,8.81,6.59,17.88,12.83,27.03,18.94,4.79,3.2,9.8,6.21,15.02,8.61,9.3,4.27,18.72,8.34,28.32,11.88,13.86,5.11,27.73,10.37,41.96,14.27,13.14,3.6,26.66,6.15,40.18,7.94,12.5,1.65,25.21,1.82,37.84,2.41,31.05,1.45,62.04,1.41,92.46-6.22,11.3-2.83,23.14-2.71,34.06-8.15,7.85-3.91,17.02-5.14,25.5-7.86,5.49-1.76,11.01-3.66,16.17-6.2,9.13-4.49,18.06-9.39,26.93-14.38,6.98-3.93,13.86-8.07,20.54-12.49,4.39-2.9,8.27-6.56,12.51-9.72,5.55-4.13,12.09-3.64,18.56-3.98,13.52-.71,27.01-1.85,40.51-2.92,1.46-.12,2.87-.96,4.25-1.45-5.38-6.71-10.72-12.59-15.13-19.11-4.07-6-11.73-11.42-4.49-20.45,3.89-4.86,6.56-10.69,10.14-16.67,1.22,3.08,1.95,5.61,3.18,7.87,4.13,7.56,7.9,15.41,12.87,22.38,3.57,5.01,8.75,8.91,13.39,13.1,6.68,6.04,13.29,12.21,20.44,17.66,2.28,1.74,6.22,2.09,9.3,1.85,8.76-.69,17.46-2.02,26.19-3.07,1.8-.22,3.64-.2,5.42-.52,8.37-1.48,16.68-3.98,25.29-2.02,2.54.58,4.91,2.15,7.46,2.47,14.22,1.77,28.48,3.29,42.72,4.92,9.76,1.12,19.52,3.27,29.26,3.18,13.4-.13,26.96,4.49,40.3-1.38,3.96-1.74,6.14-3.67,5.48-8.2-.57-3.9-.9-7.85-1.14-11.79ZM458.96,297.01c-10.99,7.75-22.7,14.2-34.75,20.3-15.35,7.78-31.16,13.89-47.68,18.14-14.88,3.83-29.92,7.3-45.07,9.79-12.91,2.12-26.06,2.92-39.14,3.76-10.2.65-20.47.87-30.68.53-10.19-.34-20.44-1.05-30.51-2.63-15.39-2.41-30.69-5.45-45.93-8.71-8.28-1.77-16.58-3.95-24.46-7.03-11.17-4.36-22.11-9.38-32.85-14.73-10.22-5.09-20.32-10.55-29.94-16.68-5.22-3.32-9.28-8.45-13.99-12.61-3.7-3.27-7.76-6.14-11.36-9.52-2.94-2.75-5.6-5.85-8.08-9.03-4.42-5.67-9-11.28-12.77-17.38-3.59-5.79-6.35-12.11-9.25-18.3-4.63-9.87-7.07-20.39-7.59-31.21-.5-10.24-.31-20.39,1.94-30.67,3.42-15.6,9.62-29.77,18.84-42.5,5.53-7.63,12.33-14.4,19.02-21.11,7.04-7.06,14.28-14.01,22.1-20.18,5.76-4.54,12.55-7.8,18.95-11.52,5.51-3.2,10.99-6.5,16.7-9.31,12.14-5.96,24.52-11.4,37.68-14.79,12.27-3.16,24.45-6.79,36.85-9.3,11.69-2.37,23.58-4.14,35.47-5.1,15.87-1.28,31.84-2.33,47.73-1.96,15.74.37,31.5,2.15,47.14,4.21,11.61,1.53,23.1,4.21,34.53,6.91,5.65,1.33,11.01,3.86,16.51,5.82,10.96,3.9,21.94,7.78,32.91,11.67-.15.52-.3,1.03-.46,1.55-4.77,0-9.54,0-14.32,0-3.48,0-5.75.56-4.54,5.21,1.78,6.8,2.62,13.6,6.23,20.13,3.34,6.04,3.62,13.71,5.61,20.55,1.87,6.42,4.27,12.69,6.31,19.07,1.16,3.62,2.12,7.3,3.08,10.97,2.22,8.43,4.12,16.95,6.68,25.27,1.62,5.27,4.57,10.14,6.23,15.4,1.79,5.67,2.53,11.66,4.18,17.38,2,6.91,4.73,13.61,6.69,20.54,2.87,10.16,5.16,20.5,8.06,30.65,1.25,4.36,3.58,8.41,5.09,12.71,1.2,3.41,1.92,6.98,2.81,10.49,1.13,4.5,2.56,8.96,3.23,13.53.78,5.25-3.88,7.34-7.16,9.66ZM514.32,226.54c-1.42,3.48-2.1,7.26-3.12,10.91-.74.13-1.47.26-2.21.39-14.27-47.65-28.55-95.31-42.98-143.51,1.51.34,3.22.22,4.15,1.02,3.31,2.85,6.56,5.81,9.44,9.08,6.88,7.82,13.75,15.68,20.18,23.86,2.97,3.77,5.18,8.22,7.26,12.59,3.24,6.81,6.43,13.68,8.94,20.78,2,5.65,3.52,11.6,4.23,17.54,1.96,16.21.33,32.07-5.89,47.35ZM634.83,218.26c0,.64.45,1.37.27,1.91-4.51,13.21-4.25,27.29-7.53,40.71-1.34,5.5-3.37,10.84-5.47,17.49-5.41-4.43-10.82-7.96-15.07-12.56-6.36-6.88-11.86-14.52-11.97-24.64-.07-6.2.99-11.44,5.66-16.47,7.1-7.65,14.98-13.12,25.27-14.93,2.1-.37,4.24-.59,6.37-.69,3.59-.16,3.63,1.73,2.69,4.52-.48,1.41-.21,3.09-.21,4.65Z"/>
      <path d="M857.76,289.52c-.93-8.22-1.91-16.43-2.92-24.63-.53-4.3-1.34-8.58-1.77-12.89-.51-5.1-.77-10.22-1.12-15.34-.38-5.55-.89-11.09-1.08-16.65-.28-8.21-.37-16.43-.45-24.65-.06-5.53.03-11.07.06-16.6.02-6.4.1-12.8.04-19.2-.03-3.32-1.88-4.24-5.16-4.54-11.78-1.06-23.53-2.49-35.27-3.96-4.72-.59-9.37-1.75-14.07-2.45-7.04-1.05-14.08-2.36-21.17-2.72-5.34-.27-10.76.68-16.12,1.3-.93.11-2.15,1.11-2.54,2-3.77,8.46-7.43,16.97-11.03,25.5-1.64,3.88-2.16,8.75-4.88,11.51-3.05,3.1-5.25,6.27-6.68,10.19-.89,2.43-1.45,5.05-2.7,7.28-4.26,7.54-8.67,15.01-13.22,22.38-2.59,4.2-5.54,8.17-8.34,12.23-2.61,3.79-5.21,7.57-2.41,12.27,1.21-.28,2.46-.96,3.52-.74,11.49,2.33,22.95,4.79,34.41,7.27,1.58.34,3.21.74,4.63,1.48,5.64,2.94,13.22,2.72,17.69-1.87,4.18-4.29,8.1-9.22,10.75-14.55,3.67-7.39,5.96-15.45,9.04-23.15,1-2.49,2.61-4.74,3.95-7.09.41.22.82.43,1.23.65,0,3.1.19,6.22-.04,9.3-.39,5.18-1.39,10.33-1.51,15.5-.12,5.2.86,10.42.72,15.61-.12,4.64-1.48,9.25-1.64,13.9-.31,9.15-.42,18.33-.14,27.48.18,6.1-.36,12.96,2.23,18.04,2.76,5.41,7.55,10.68,15.55,10.39,11.77-.42,23.56-.09,35.34-.11,11.25-.01,18.46-8.98,16.46-20.11-.77-4.29-.85-8.71-1.34-13.05Z"/>
      <path d="M954.48,205.72c8.86-5.78,18.42-10.68,28.12-14.95,14.51-6.39,29.49-11.69,44.13-17.82,12.79-5.35,25.37-11.18,38.02-16.86,2.37-1.06,2.59-2.52.88-4.7-4.67-5.93-9.34-11.88-13.6-18.1-2.81-4.1-6.32-4.81-10.78-4.09-10.79,1.75-19.73,8.05-29.65,11.94-9.68,3.79-18.91,8.71-28.38,13.03-9.9,4.52-20.02,8.58-29.73,13.47-10.17,5.12-19.93,11.04-29.93,16.49-2.76,1.51-4.85,1.15-4.82-2.76.05-7.32.08-14.64-.02-21.96-.08-5.5-2.21-8.27-7.66-9.14-3.29-.52-6.76-.27-10.11.09-10.72,1.15-21.41,2.49-32.11,3.78-4.22.51-7.32,1.92-6.65,7.19,1.05,8.19,1.93,16.4,2.71,24.62.78,8.25,1.54,16.51,1.97,24.78.48,9.07.59,18.16.83,27.24.41,15.2.9,30.4,1.14,45.6.13,8.24-.98,16.57-.08,24.7.68,6.07,3.16,12.49,10.66,13.19,8.92.83,17.89,1.29,26.85,1.47,12.28.24,24.57.06,37.48.06-2.54-9.99-4.8-18.68-6.95-27.4-.51-2.08-.52-4.28-1.05-6.35-2.01-7.84-4.41-15.59-6.13-23.49-1.08-4.97-.72-10.26-1.87-15.21-2.26-9.69-2.67-19.24,4.7-26.67,6.68-6.74,14.1-12.97,22.04-18.15Z"/>
      <path d="M1101.26,172.23c-.06-.04-.15-.11-.31-.25,0,.07,0,.14,0,.21.09,0,.17.01.26.02.02,0,.03,0,.05.01Z"/>
      <path d="M1105.61,265.28c-8.54-9.32-19.36-14.34-31.51-17.24-12.83-3.07-26.53-1.99-38.7-8.2-2.21-1.13-4.58-2.14-7-2.59-6.31-1.17-10.51-4.98-12.69-10.6-.81-2.09-.25-5.94,1.23-7.4,2.56-2.51,6.15-4.57,9.65-5.42,8.18-2.01,16.52-3.47,24.86-4.63,6.2-.86,12.51-1.25,18.76-1.23,8.13.04,16.27,1.08,24.38.83,2.17-.07,5.96-3.16,6.06-5.04.59-10.31.29-20.68.29-31.57-18.25-1.58-36.17-1.26-54.17,3.79-12.19,3.42-24.85,4.82-36.87,9.63-13.68,5.48-27.06,10.36-34.9,24.29-4.5,7.99-2.39,21.33,5.15,26.5,6.07,4.16,11.78,8.83,17.8,13.06,6.57,4.62,13.28,9.04,19.99,13.47,4.54,2.99,9.32,5.64,13.7,8.82,3.24,2.36,6.03,5.34,9.37,8.35-1.33.79-2.09,1.56-2.95,1.7-7.65,1.25-15.29,2.88-23,3.44-13.94,1.02-28,.68-41.86,2.25-9.99,1.13-10.97,1.27-10.41,11.61.1,1.82,0,3.67-.16,5.49-1.44,16.28,5.22,16.58,17.24,18.08.66.08,1.33.02,2,.02,13.33,0,26.69.58,39.98-.18,10.5-.61,20.93-2.76,31.34-4.46,3.53-.58,6.9-2.08,10.41-2.82,15.78-3.32,30.5-8.61,41.44-21.31,5.65-6.57,6.01-22.7.59-28.63Z"/>
      <path d="M758.54,95.22c5.78,3.83,11.52,7.75,17.56,11.14,4.39,2.46,9.11,4.47,13.89,6.08,7.62,2.56,13.25,9.46,22.18,9.39,3.06-.02,6.3,2.26,9.16,3.99,4.33,2.62,8.1,6.35,12.65,8.37,6.1,2.71,12.82,4.02,19.1,6.38,2.62.99,4.49,1.02,6.06-1.22,2.76-3.93,5.34-8,8.11-11.93,1.46-2.06,3.32-3.83,4.75-5.9,5.57-8.03,10.98-16.18,16.59-24.18,1.83-2.61,4.36-4.73,6.11-7.37,3.49-5.28,5.89-11.51,10.16-16.01,7.11-7.49,7.55-17.1,8.76-25.93.96-7.07-1.85-14.83-5.63-21.51-.61-1.07-1.48-2.26-2.53-2.77-4.96-2.41-10.39-4.03-14.96-7-5.49-3.58-10.92-1.73-16.09-.68-3.38.69-5.97,1.66-9.21-.42-2.01-1.28-5.22-2.76-5.77,2.06-.09.76-1.67,2.06-2.32,1.93-4.35-.9-7.57,1.56-11.29,2.97-8.24,3.13-15.42,7.68-22.43,12.92-3.05,2.28-7.53,3.58-11.39,3.64-4.77.07-9.56-1.6-13.06-2.27-2.7.58-4.01,1.18-5.28,1.09-9.24-.64-16.26,6.32-25.02,7.27-.52.06-1.05.71-1.43,1.2-3.8,4.95-7.3,10.17-11.42,14.84-5.69,6.46-6.79,12.77-5.7,21.4.78,6.17,3.96,9.55,8.45,12.53ZM853.17,45.51c8.05-7.42,18.75-7.28,29.75-9.18,1.52.55,3.99,1.08,6.06,2.3,4.35,2.55,4.24,7.52-.27,9.62-6.93,3.23-13.9,6.46-21.1,9-3.65,1.29-7.92,1.7-11.76,1.26-2.15-.24-5.46-2.89-5.65-4.72-.28-2.68,1-6.45,2.98-8.27ZM773.38,69.69c3.43-3.16,6.81-6.59,10.83-8.83,6.56-3.66,13.92-5.69,21.33-3.5,2.95.87,6.4,3.7,7.44,6.46,1.41,3.73-1.64,6.04-5.59,7.13-7.31,2.03-14.48,4.54-22.72,7.17-3.43-1.56-7.07-3.02-10.47-4.92-.75-.42-1.3-3.08-.83-3.51Z"/>
      <path d="M406.39,208.98c-2.87-5.1-6.34-9.96-10.17-14.38-3.88-4.5-8.48-8.39-12.86-12.44-4.22-3.89-8.25-8.09-12.93-11.36-7.49-5.24-15.6-9.58-23.12-14.77-3.71-2.56-8.15-4.61-9.1-10.16-1.29-7.52-3.51-14.88-5.01-22.37-3.82-19.2-16.31-32.4-31.05-43.54-7.09-5.36-15.76-8.63-23.64-12.98-11.29-6.23-23.73-8.51-36.23-8.69-8.42-.12-17.19-.14-25.41,4.11-10.51,5.43-18.21,12.88-22.26,24.01-3.67,10.08-4.33,20.5-3.77,31.09.87,16.65,5.59,32.52,9.46,48.59,2.19,9.11,5.45,18.31,1.98,28-.57,1.6-.14,4.32.93,5.61,3.1,3.74,6.67,7.11,10.23,10.44,7.18,6.72,14.85,12.97,21.57,20.12,3.02,3.21,5.6,2.51,7.68.75,2.66-2.25,5.47-5.35,6.27-8.57,1.81-7.33,3.81-15.06,3.23-22.43-1.18-14.89-3.21-29.82-6.43-44.39-2.5-11.33-4.53-22.52-3.23-34.01.46-4.09,1.86-8.74,4.44-11.77,3.86-4.53,10.02-5.27,15.86-5.48,7.34-.27,13.83,1.36,17.91,8.31,7.97,13.56,12.08,27.98,10.1,43.81-.76,6.04,1.23,10.34,5.99,12.3,6,2.47,12.1,4.71,18.12,7.12,3.07,1.23,6.31,2.23,9.06,3.98,6.36,4.04,12.27,8.84,18.74,12.67,10.41,6.17,15.39,16.36,19.31,26.75,4.8,12.74-1.25,29.68-12.27,38.05-9.56,7.25-20.81,8.83-32.29,8-6.12-.44-12.23-2.19-18.16-3.94-11.69-3.44-23.26-7.27-34.86-10.99-5.45-1.75-10.82-3.71-16.29-5.4-12.36-3.82-24.78-7.47-37.13-11.32-6.74-2.09-13.38-4.5-20.1-6.65-7.03-2.25-14.13-4.3-21.16-6.55-12.11-3.88-24.19-7.89-36.3-11.78-5.16-1.66-10.37-3.17-16.53-5.05.58,3.05.72,5.68,1.6,8.03,2.34,6.28,5,12.44,7.55,18.64,1.42,3.46,2.88,6.91,4.34,10.35,2.45,5.8,4.57,11.78,7.5,17.32,2.02,3.81,3.28,8.02,9.2,9.23,20.61,4.22,41.03,9.39,61.52,14.22,8.67,2.04,17.41,3.87,25.99,6.25,11.74,3.25,23.29,7.16,35.04,10.36,11.81,3.22,23.71,6.16,35.67,8.77,14.22,3.1,28.38,7.03,43.15,6.3,6.36-.31,12.7-1.18,19.04-1.81.32-.03.62-.25.94-.33,13.46-3.53,26.37-8.09,37.37-17.12,8.36-6.86,14.25-15.13,16.67-25.68,2.6-11.3,1.45-22.53-2.86-33.08-3.68-9.03-8.5-17.64-13.31-26.16Z"/>
    </g>
  </g>
</svg>